<?xml version="1.0" encoding="utf-8"?><svg xmlns="http://www.w3.org/2000/svg" xmlns:xlink="http://www.w3.org/1999/xlink"><defs><svg viewBox="0 0 24 24" id="eye-closed-icon" xmlns="http://www.w3.org/2000/svg"><path d="M11.885 14.988l3.104-3.098L15 12c0 1.654-1.346 3-3 3l-.115-.012zm8.048-8.032l-3.274 3.268c.212.554.341 1.149.341 1.776 0 2.757-2.243 5-5 5-.631 0-1.229-.13-1.785-.344l-2.377 2.372c1.276.588 2.671.972 4.177.972C19.748 20 24 11.551 24 11.551s-1.415-2.478-4.067-4.595zm1.431-3.536L2.745 22l-1.382-1.422 3.455-3.447C1.796 14.681 0 11.551 0 11.551S4.446 4 12.015 4c1.825 0 3.456.426 4.886 1.075L19.982 2l1.382 1.42zM7.613 14.342l1.519-1.515A2.938 2.938 0 019 12c0-1.654 1.346-3 3-3 .291 0 .567.055.833.134l1.518-1.515A4.906 4.906 0 0012 7c-2.757 0-5 2.243-5 5 0 .852.235 1.641.613 2.342z"/></svg><svg viewBox="0 0 488.85 488.85" id="eye-icon" xmlns="http://www.w3.org/2000/svg"><path d="M244.425 98.725c-93.4 0-178.1 51.1-240.6 134.1-5.1 6.8-5.1 16.3 0 23.1 62.5 83.1 147.2 134.2 240.6 134.2s178.1-51.1 240.6-134.1c5.1-6.8 5.1-16.3 0-23.1-62.5-83.1-147.2-134.2-240.6-134.2zm6.7 248.3c-62 3.9-113.2-47.2-109.3-109.3 3.2-51.2 44.7-92.7 95.9-95.9 62-3.9 113.2 47.2 109.3 109.3-3.3 51.1-44.8 92.6-95.9 95.9zm-3.1-47.4c-33.4 2.1-61-25.4-58.8-58.8 1.7-27.6 24.1-49.9 51.7-51.7 33.4-2.1 61 25.4 58.8 58.8-1.8 27.7-24.2 50-51.7 51.7z"/></svg></defs></svg>